HIERARCHY
ROOT Hips
{
	OFFSET 0.000000 103.266502 0.000000
	CHANNELS 6 Xposition Yposition Zposition Xrotation Yrotation Zrotation 
	JOINT Spine
	{
		OFFSET -0.002400 12.777504 0.315300
		CHANNELS 3 Xrotation Yrotation Zrotation
		JOINT Spine1
		{
			OFFSET -0.002067 5.816869 0.032633
			CHANNELS 3 Xrotation Yrotation Zrotation
			JOINT Spine1_split
			{
				OFFSET -0.002067 5.816869 0.032633
				CHANNELS 3 Xrotation Yrotation Zrotation
				JOINT Spine2
				{
					OFFSET -0.002067 5.816869 0.032633
					CHANNELS 3 Xrotation Yrotation Zrotation
					JOINT Neck
					{
						OFFSET -0.003700 21.199493 -0.826900
						CHANNELS 3 Xrotation Yrotation Zrotation
						JOINT Head
						{
							OFFSET 0.000000 20.442200 4.834800
							CHANNELS 3 Xrotation Yrotation Zrotation
							JOINT HeadTop_End
							{
								OFFSET 0.000000 34.668396 4.968400
								CHANNELS 3 Xrotation Yrotation Zrotation
								End Site
								{
									OFFSET 0.000000 0.000000 0.000000
								}
							}
						}
					}
					JOINT LeftShoulder
					{
						OFFSET 3.288150 8.794197 -1.372250
						CHANNELS 3 Xrotation Yrotation Zrotation
						JOINT LeftShoulder_split
						{
							OFFSET 3.288150 8.794197 -1.372250
							CHANNELS 3 Xrotation Yrotation Zrotation
							JOINT LeftArm
							{
								OFFSET 11.953299 -2.279007 -0.146200
								CHANNELS 3 Xrotation Yrotation Zrotation
								JOINT LeftForeArm
								{
									OFFSET 18.448900 0.000000 0.000000
									CHANNELS 3 Xrotation Yrotation Zrotation
									JOINT LeftHand
									{
										OFFSET 29.527798 0.000000 0.000000
										CHANNELS 3 Xrotation Yrotation Zrotation
										JOINT LeftHandThumb1
										{
											OFFSET 10.739754 -2.369614 9.225399
											CHANNELS 3 Xrotation Yrotation Zrotation
											JOINT LeftHandThumb2
											{
												OFFSET 4.926170 -2.844131 2.844125
												CHANNELS 3 Xrotation Yrotation Zrotation
												JOINT LeftHandThumb3
												{
													OFFSET 4.614891 -2.664413 2.664409
													CHANNELS 3 Xrotation Yrotation Zrotation
													JOINT LeftHandThumb4
													{
														OFFSET 4.432465 -2.559082 2.559083
														CHANNELS 3 Xrotation Yrotation Zrotation
														End Site
														{
															OFFSET 0.000000 0.000000 0.000000
														}
													}
												}
											}
										}
										JOINT LeftHandIndex1
										{
											OFFSET 26.467674 0.187653 6.405298
											CHANNELS 3 Xrotation Yrotation Zrotation
											JOINT LeftHandIndex2
											{
												OFFSET 8.792900 0.000000 0.000000
												CHANNELS 3 Xrotation Yrotation Zrotation
												JOINT LeftHandIndex3
												{
													OFFSET 10.075203 0.000000 0.000000
													CHANNELS 3 Xrotation Yrotation Zrotation
													End Site
													{
														OFFSET 0.000000 0.000000 0.000000
													}
												}
											}
										}
										JOINT LeftHandMiddle1
										{
											OFFSET 25.764404 0.000000 0.000000
											CHANNELS 3 Xrotation Yrotation Zrotation
											JOINT LeftHandMiddle2
											{
												OFFSET 9.393974 0.000000 0.000000
												CHANNELS 3 Xrotation Yrotation Zrotation
												JOINT LeftHandMiddle3
												{
													OFFSET 10.771950 0.000000 0.000000
													CHANNELS 3 Xrotation Yrotation Zrotation
													End Site
													{
														OFFSET 0.000000 0.000000 0.000000
													}
												}
											}
										}
										JOINT LeftHandRing1
										{
											OFFSET 24.660927 0.144547 -6.225808
											CHANNELS 3 Xrotation Yrotation Zrotation
											JOINT LeftHandRing2
											{
												OFFSET 9.393799 0.000000 0.000000
												CHANNELS 3 Xrotation Yrotation Zrotation
												JOINT LeftHandRing3
												{
													OFFSET 9.928497 0.000000 0.000000
													CHANNELS 3 Xrotation Yrotation Zrotation
													End Site
													{
														OFFSET 0.000000 0.000000 0.000000
													}
												}
											}
										}
										JOINT LeftHandPinky1
										{
											OFFSET 23.655350 0.125290 -12.815412
											CHANNELS 3 Xrotation Yrotation Zrotation
											JOINT LeftHandPinky2
											{
												OFFSET 8.425102 0.000000 0.000000
												CHANNELS 3 Xrotation Yrotation Zrotation
												JOINT LeftHandPinky3
												{
													OFFSET 8.147003 0.000000 0.000000
													CHANNELS 3 Xrotation Yrotation Zrotation
													End Site
													{
														OFFSET 0.000000 0.000000 0.000000
													}
												}
											}
										}
									}
								}
							}
						}
					}
					JOINT RightShoulder
					{
						OFFSET -3.249400 8.794197 -1.372250
						CHANNELS 3 Xrotation Yrotation Zrotation
						JOINT RightShoulder_split
						{
							OFFSET -3.249400 8.794197 -1.372250
							CHANNELS 3 Xrotation Yrotation Zrotation
							JOINT RightArm
							{
								OFFSET -11.953299 -2.279007 -0.146200
								CHANNELS 3 Xrotation Yrotation Zrotation
								JOINT RightForeArm
								{
									OFFSET -18.448900 0.000000 0.000000
									CHANNELS 3 Xrotation Yrotation Zrotation
									JOINT RightHand
									{
										OFFSET -29.527802 0.000000 0.000000
										CHANNELS 3 Xrotation Yrotation Zrotation
										JOINT RightHandThumb1
										{
											OFFSET -10.739754 -2.369614 9.225399
											CHANNELS 3 Xrotation Yrotation Zrotation
											JOINT RightHandThumb2
											{
												OFFSET -4.926170 -2.844131 2.844125
												CHANNELS 3 Xrotation Yrotation Zrotation
												JOINT RightHandThumb3
												{
													OFFSET -4.614891 -2.664413 2.664409
													CHANNELS 3 Xrotation Yrotation Zrotation
													JOINT RightHandThumb4
													{
														OFFSET -4.432465 -2.559082 2.559083
														CHANNELS 3 Xrotation Yrotation Zrotation
														End Site
														{
															OFFSET 0.000000 0.000000 0.000000
														}
													}
												}
											}
										}
										JOINT RightHandIndex1
										{
											OFFSET -26.467674 0.187653 6.405298
											CHANNELS 3 Xrotation Yrotation Zrotation
											JOINT RightHandIndex2
											{
												OFFSET -8.792900 0.000000 0.000000
												CHANNELS 3 Xrotation Yrotation Zrotation
												JOINT RightHandIndex3
												{
													OFFSET -10.075203 0.000000 0.000000
													CHANNELS 3 Xrotation Yrotation Zrotation
													End Site
													{
														OFFSET 0.000000 0.000000 0.000000
													}
												}
											}
										}
										JOINT RightHandMiddle1
										{
											OFFSET -25.764404 0.000000 0.000000
											CHANNELS 3 Xrotation Yrotation Zrotation
											JOINT RightHandMiddle2
											{
												OFFSET -9.393974 0.000000 0.000000
												CHANNELS 3 Xrotation Yrotation Zrotation
												JOINT RightHandMiddle3
												{
													OFFSET -10.771950 0.000000 0.000000
													CHANNELS 3 Xrotation Yrotation Zrotation
													End Site
													{
														OFFSET 0.000000 0.000000 0.000000
													}
												}
											}
										}
										JOINT RightHandRing1
										{
											OFFSET -24.660927 0.144547 -6.225808
											CHANNELS 3 Xrotation Yrotation Zrotation
											JOINT RightHandRing2
											{
												OFFSET -9.393799 0.000000 0.000000
												CHANNELS 3 Xrotation Yrotation Zrotation
												JOINT RightHandRing3
												{
													OFFSET -9.928497 0.000000 0.000000
													CHANNELS 3 Xrotation Yrotation Zrotation
													End Site
													{
														OFFSET 0.000000 0.000000 0.000000
													}
												}
											}
										}
										JOINT RightHandPinky1
										{
											OFFSET -23.655350 0.125290 -12.815412
											CHANNELS 3 Xrotation Yrotation Zrotation
											JOINT RightHandPinky2
											{
												OFFSET -8.425102 0.000000 0.000000
												CHANNELS 3 Xrotation Yrotation Zrotation
												JOINT RightHandPinky3
												{
													OFFSET -8.147003 0.000000 0.000000
													CHANNELS 3 Xrotation Yrotation Zrotation
													End Site
													{
														OFFSET 0.000000 0.000000 0.000000
													}
												}
											}
										}
									}
								}
							}
						}
					}
				}
			}
		}
	}
	JOINT LeftUpLeg
	{
		OFFSET 11.394100 -6.187798 -0.413800
		CHANNELS 3 Xrotation Yrotation Zrotation
		JOINT LeftLeg
		{
			OFFSET 0.430247 -32.302673 3.732800
			CHANNELS 3 Xrotation Yrotation Zrotation
			JOINT LeftFoot
			{
				OFFSET -0.430247 -48.264931 -6.423300
				CHANNELS 3 Xrotation Yrotation Zrotation
				JOINT LeftToeBase
				{
					OFFSET 4.230900 -16.068199 23.438400
					CHANNELS 3 Xrotation Yrotation Zrotation
					JOINT LeftToe_End
					{
						OFFSET 4.510700 0.695400 19.974600
						CHANNELS 3 Xrotation Yrotation Zrotation
						End Site
						{
							OFFSET 0.000000 0.000000 0.000000
						}
					}
				}
			}
		}
	}
	JOINT RightUpLeg
	{
		OFFSET -11.333700 -6.187798 -0.413800
		CHANNELS 3 Xrotation Yrotation Zrotation
		JOINT RightLeg
		{
			OFFSET -0.430392 -32.302628 3.733000
			CHANNELS 3 Xrotation Yrotation Zrotation
			JOINT RightFoot
			{
				OFFSET 0.430392 -48.264973 -6.423500
				CHANNELS 3 Xrotation Yrotation Zrotation
				JOINT RightToeBase
				{
					OFFSET -4.230900 -16.068199 23.438400
					CHANNELS 3 Xrotation Yrotation Zrotation
					JOINT RightToe_End
					{
						OFFSET -4.510700 0.695400 19.974600
						CHANNELS 3 Xrotation Yrotation Zrotation
						End Site
						{
							OFFSET 0.000000 0.000000 0.000000
						}
					}
				}
			}
		}
	}
}
MOTION
Frames: 6
Frame Time: 0.016667
4.714750 97.084351 9.202023 -31.867815 -38.269352 -21.789576 11.203340 -4.852376 -0.543716 3.545658 -2.400650 -0.151373 0.000000 0.000000 0.000000 3.557023 -2.388386 -0.108336 1.348022 0.319778 -0.743108 -7.666568 -1.011475 4.648233 -0.000000 -0.000001 -0.000000 0.576510 -16.606929 -10.307148 0.000000 0.000000 0.000000 -20.089169 4.591486 -37.031226 0.000029 -67.698888 0.000028 -41.746687 -11.632960 -7.621736 -22.783305 -14.798039 12.273484 3.061427 10.434226 14.851287 3.493371 44.556172 6.590334 -0.000001 0.000002 -0.000002 2.077600 -2.776285 26.093708 3.254372 5.245105 -63.613889 -0.000001 -0.000001 0.000000 -0.902196 3.834344 20.965926 2.978802 5.099696 -60.557885 0.000000 0.000001 0.000000 -6.120867 13.236935 27.840240 3.788275 5.476565 -69.323695 -0.000000 0.000001 -0.000000 -10.441711 21.141338 29.056554 0.279105 1.788349 -17.739139 -0.000000 -0.000000 -0.000003 0.014987 14.189136 15.480071 0.000000 0.000000 0.000000 -11.472635 -5.400279 60.640373 0.000001 39.601024 -0.000007 -3.018906 -4.350300 23.974254 -20.073111 16.089480 -24.921362 8.794322 -40.952756 -1.386074 -0.282953 -28.729063 -23.321194 0.000001 -0.000000 0.000001 1.096426 -5.220425 38.986313 3.071084 -4.379324 70.068541 0.000001 0.000000 0.000000 2.986233 -6.607890 70.685197 0.640890 -2.359613 30.386740 0.000002 -0.000001 0.000001 5.905027 -7.187184 80.752924 0.324121 -1.708677 21.480953 0.000001 -0.000000 -0.000002 2.049602 -22.469466 97.460195 1.111356 -3.021274 40.383989 -0.000003 0.000001 0.000001 -0.939447 12.422173 3.462418 31.657876 -1.765967 -4.404530 -7.683637 8.805832 7.417912 -0.411237 -0.000003 0.000006 -0.000000 0.000002 -0.000000 11.395944 -7.962546 -8.318672 28.813795 4.831266 -5.983028 -14.021153 -11.723904 7.049124 0.380979 -0.001537 0.483953 0.000000 -0.000001 -0.000001 
5.133106 97.074211 9.535055 -32.385707 -39.295335 -22.589387 11.201333 -4.846339 -0.567429 3.545656 -2.400645 -0.151373 0.000000 0.000000 0.000000 3.557022 -2.388381 -0.108336 1.314815 0.322544 -0.750639 -7.907087 -0.936248 4.513180 0.000000 -0.000003 -0.000001 0.579616 -16.606960 -10.288912 0.000000 0.000000 0.000000 -19.994009 4.524790 -36.978634 0.000072 -67.695186 0.000087 -41.851448 -11.691148 -7.561891 -22.783300 -14.798035 12.273488 3.079709 10.434815 14.836327 3.510078 44.557576 6.575762 -0.000002 0.000001 0.000002 2.045395 -2.802598 26.067079 3.253664 5.244730 -63.605973 -0.000000 -0.000001 0.000000 -0.893464 3.814333 20.948159 2.979436 5.100060 -60.565104 0.000001 -0.000000 0.000000 -6.128911 13.260723 27.829034 3.784890 5.475299 -69.288335 -0.000000 -0.000000 -0.000000 -10.387945 21.193315 29.075251 0.279680 1.790211 -17.758002 -0.000001 0.000000 -0.000004 0.007981 14.220989 15.529861 0.000000 0.000000 0.000000 -11.429889 -5.404805 60.569974 0.000023 39.667198 -0.000025 -3.063988 -4.381499 23.963522 -20.073108 16.089477 -24.921356 8.794319 -40.952752 -1.386070 -0.303349 -28.706653 -23.353349 0.000001 0.000000 0.000004 1.106975 -5.237093 39.169711 3.083391 -4.383760 70.229426 -0.000000 0.000002 -0.000000 2.981900 -6.606646 70.757877 0.640847 -2.359562 30.385965 -0.000001 -0.000001 -0.000001 5.895827 -7.186308 80.734762 0.324324 -1.709205 21.487806 0.000000 -0.000000 -0.000000 2.105650 -22.468963 97.580310 1.111356 -3.021277 40.383989 -0.000002 -0.000001 -0.000000 -0.991334 12.651262 3.443533 31.848417 -2.258071 -4.835000 -7.993857 10.157380 8.311165 -0.288410 0.003051 -0.292521 0.000000 -0.000002 0.000000 10.933502 -7.786681 -8.606778 28.874211 4.425312 -6.137789 -13.451170 -11.916434 7.424080 0.318810 -0.001064 0.405128 0.000000 0.000001 0.000000 
5.537123 97.064842 9.865828 -32.931002 -40.315881 -23.411476 11.199132 -4.839792 -0.593566 3.545658 -2.400645 -0.151372 0.000000 0.000000 0.000000 3.557023 -2.388387 -0.108336 1.278866 0.332803 -0.774659 -8.164868 -0.794800 4.357011 0.000000 0.000002 0.000000 0.580765 -16.582630 -10.279782 0.000000 0.000000 0.000000 -19.895786 4.421315 -36.921793 0.000086 -67.679436 0.000106 -41.961042 -11.751896 -7.500604 -22.783300 -14.798039 12.273489 3.099923 10.435460 14.819798 3.510873 44.557514 6.573888 0.000000 -0.000002 0.000002 2.025261 -2.817831 26.042806 3.253559 5.244684 -63.605003 0.000000 -0.000001 -0.000000 -0.885625 3.795376 20.937801 2.979666 5.100194 -60.567775 0.000000 -0.000001 0.000000 -6.132721 13.270837 27.825636 3.782938 5.474548 -69.267838 0.000000 -0.000000 -0.000001 -10.351074 21.229439 29.094420 0.279742 1.790416 -17.760210 -0.000000 0.000001 -0.000002 0.005024 14.258427 15.543487 0.000000 0.000000 0.000000 -11.398945 -5.416202 60.537517 -0.000013 39.702937 0.000004 -3.105302 -4.392591 23.950458 -20.073108 16.089479 -24.921356 8.794323 -40.952749 -1.386074 -0.311590 -28.697545 -23.366367 0.000000 -0.000001 -0.000001 1.117281 -5.251224 39.338352 3.100184 -4.389734 70.448839 0.000001 0.000003 0.000001 2.976169 -6.604918 70.820538 0.641042 -2.359864 30.390292 -0.000002 0.000000 -0.000001 5.886029 -7.185531 80.710863 0.324521 -1.709653 21.493806 0.000002 0.000001 -0.000000 2.138397 -22.467805 97.646010 1.111356 -3.021276 40.383989 0.000000 0.000001 -0.000001 -0.889337 12.896893 3.275500 31.821609 -2.720036 -5.166803 -8.510186 11.507400 9.503139 0.151626 0.003020 -0.678046 0.000000 -0.000001 -0.000000 10.390927 -7.724152 -8.958120 29.008821 4.496654 -6.169099 -12.819787 -12.734736 7.591840 0.215819 -0.000483 0.275527 0.000000 0.000001 -0.000000 
5.918716 97.058907 10.200632 -33.503601 -41.327852 -24.260805 11.197136 -4.834509 -0.617115 3.545659 -2.400648 -0.151373 0.000000 0.000000 0.000000 3.557022 -2.388383 -0.108336 1.244412 0.349213 -0.810672 -8.403959 -0.613163 4.203384 -0.000000 0.000002 -0.000000 0.581072 -16.531950 -10.273113 0.000000 0.000000 0.000000 -19.827091 4.304704 -36.893854 -0.000002 -67.649137 0.000010 -42.037857 -11.798974 -7.458965 -22.783300 -14.798037 12.273487 3.120368 10.436112 14.803066 3.500032 44.556428 6.581394 -0.000003 -0.000000 -0.000002 2.016337 -2.822801 26.020144 3.253947 5.244886 -63.609354 0.000001 -0.000000 0.000000 -0.880716 3.784771 20.924187 2.979453 5.100057 -60.565234 0.000000 -0.000000 0.000001 -6.133157 13.271909 27.825386 3.781452 5.474030 -69.252449 -0.000000 -0.000000 0.000000 -10.329199 21.252303 29.106643 0.279453 1.789523 -17.750965 -0.000002 0.000001 -0.000003 0.004875 14.295180 15.534099 0.000000 0.000000 0.000000 -11.379685 -5.432794 60.532073 0.000004 39.716717 -0.000010 -3.137162 -4.390539 23.938403 -20.073113 16.089482 -24.921361 8.794321 -40.952752 -1.386071 -0.307639 -28.701882 -23.360164 0.000001 0.000001 0.000003 1.125934 -5.261653 39.465543 3.114857 -4.394899 70.640535 0.000003 0.000001 0.000001 2.971160 -6.603348 70.859606 0.641259 -2.360263 30.395943 -0.000000 0.000001 -0.000003 5.878778 -7.185222 80.685359 0.324632 -1.709943 21.497595 -0.000002 -0.000001 -0.000001 2.141788 -22.466780 97.647519 1.111353 -3.021275 40.383989 -0.000002 0.000000 -0.000001 -0.697263 13.094559 3.225929 31.617840 -3.187666 -5.530852 -8.820842 12.930473 10.032166 0.221561 0.003829 -0.763964 0.000000 0.000000 0.000000 9.747516 -7.693787 -9.306842 29.196477 4.447536 -6.136225 -11.968926 -14.210985 7.753839 0.068142 -0.000050 0.090681 -0.000000 0.000001 -0.000000 
6.266182 97.041389 10.535040 -34.109094 -42.337652 -25.126313 11.193971 -4.825821 -0.654596 3.545657 -2.400647 -0.151373 0.000000 0.000000 0.000000 3.557022 -2.388380 -0.108335 1.215593 0.368825 -0.851850 -8.595516 -0.425105 4.074601 -0.000001 0.000003 0.000001 0.582379 -16.457394 -10.258217 0.000000 0.000000 0.000000 -19.810728 4.197953 -36.923507 0.000018 -67.603464 0.000021 -42.054882 -11.822212 -7.451574 -22.783303 -14.798033 12.273486 3.140173 10.436771 14.786823 3.483025 44.554748 6.593903 -0.000001 0.000006 0.000000 2.015016 -2.820694 25.998302 3.254591 5.245204 -63.616293 -0.000001 -0.000001 0.000000 -0.879976 3.788084 20.895482 2.978847 5.099724 -60.558404 -0.000000 0.000000 0.000001 -6.131574 13.270271 27.822583 3.779717 5.473346 -69.234062 0.000000 -0.000000 0.000002 -10.317631 21.267351 29.108675 0.279203 1.788752 -17.743061 -0.000001 0.000000 0.000002 0.005110 14.329363 15.523010 0.000000 0.000000 0.000000 -11.364214 -5.450940 60.530482 0.000021 39.727191 -0.000013 -3.163322 -4.387255 23.928190 -20.073108 16.089480 -24.921356 8.794317 -40.952749 -1.386070 -0.296597 -28.714040 -23.342732 -0.000000 -0.000000 0.000001 1.132454 -5.268586 39.541451 3.121559 -4.397237 70.728057 -0.000002 -0.000001 0.000000 2.968940 -6.602626 70.870842 0.641430 -2.360579 30.400414 0.000003 -0.000001 0.000001 5.876606 -7.185556 80.665347 0.324635 -1.709984 21.498024 0.000001 -0.000001 0.000001 2.118118 -22.466550 97.593663 1.111351 -3.021277 40.383989 -0.000002 0.000000 0.000000 -0.525729 13.330911 3.167239 31.457488 -3.615217 -5.844186 -9.160749 14.283196 10.528978 0.272465 0.004810 -0.826157 0.000000 -0.000001 -0.000000 8.859823 -7.636382 -9.466972 29.645401 4.907287 -6.071340 -11.141929 -16.224501 7.678015 -0.131380 -0.000008 -0.000000 -0.000000 0.000001 -0.000000 
6.574448 97.013222 10.867382 -34.748762 -43.343499 -26.011266 11.189804 -4.814517 -0.704026 3.545657 -2.400642 -0.151373 0.000000 0.000000 0.000000 3.557021 -2.388380 -0.108336 1.195444 0.388335 -0.891235 -8.722705 -0.261785 3.985372 -0.000001 0.000000 -0.000000 0.586136 -16.366149 -10.226845 0.000000 0.000000 0.000000 -19.851648 4.116403 -37.021183 0.000016 -67.544683 0.000021 -42.005694 -11.820298 -7.481586 -22.783300 -14.798039 12.273488 3.159021 10.437397 14.771341 3.464238 44.552941 6.607924 -0.000001 -0.000001 0.000001 2.017404 -2.815209 25.976729 3.255233 5.245537 -63.623349 -0.000000 -0.000001 0.000001 -0.883303 3.806290 20.845616 2.978046 5.099258 -60.549374 0.000000 -0.000001 0.000001 -6.129185 13.270857 27.813232 3.777403 5.472471 -69.209747 0.000000 0.000000 0.000000 -10.312115 21.279263 29.102422 0.279419 1.789332 -17.749174 -0.000000 0.000000 -0.000000 0.003392 14.360908 15.529842 0.000000 0.000000 0.000000 -11.341095 -5.462475 60.508892 0.000008 39.752579 -0.000006 -3.195275 -4.393771 23.917714 -20.073111 16.089477 -24.921357 8.794324 -40.952749 -1.386076 -0.285246 -28.726533 -23.324840 0.000001 0.000000 0.000001 1.137120 -5.273205 39.571838 3.117487 -4.395824 70.674870 0.000003 0.000002 0.000001 2.970721 -6.603200 70.859456 0.641562 -2.360732 30.402712 -0.000001 -0.000000 -0.000002 5.880344 -7.186443 80.657458 0.324538 -1.709734 21.494686 0.000002 0.000000 -0.000000 2.076022 -22.467456 97.505629 1.111354 -3.021280 40.383989 -0.000002 0.000001 0.000000 -0.373076 13.614644 3.109509 31.348185 -3.963426 -6.103084 -9.526017 15.514204 10.978245 0.273692 0.005982 -0.826210 0.000000 -0.000000 0.000000 7.803707 -7.561606 -9.429142 30.368793 5.782715 -5.996844 -10.474706 -18.633111 7.275316 -0.305248 -0.000016 -0.000003 -0.000000 -0.000000 0.000000 
